<svg xmlns="http://www.w3.org/2000/svg" width="433" height="485" fill="none" viewBox="0 0 433 485"><path fill="#f59e0b" d="M146.406 19.852A242.5 242.5 0 0 1 400.18 58.263c4.424 3.786 4.637 10.477.662 14.732s-10.63 4.46-15.069.692A221.418 221.418 0 0 0 21.087 241.494 221.414 221.414 0 0 0 384.232 412.61c4.473-3.727 11.126-3.461 15.062.829 3.935 4.291 3.661 10.979-.796 14.724a242.49 242.49 0 0 1-254.114 36.102A242.5 242.5 0 0 1 .003 241.398 242.5 242.5 0 0 1 146.406 19.852M165 234.794 305.755 86H391.5L255.175 224.726 391.5 400h-82.772l-98.203-129.837L165 316.491V399h-65V86h65zM432.5 188l-54.252 53.255L432.5 297v24.5H420l-79.5-80 79-77.5h13z"/></svg>